# xmcd CD database file
#
# Track frame offsets:
#	150
#	25261
#	53385
#	80614
#	109962
#	138840
#	162973
#	205777
#	220390
#	233437
#	248060
#	262738
#	276180
#	289456
#	303910
#	318759
#	332315
#	345919
#	359588
#
# Disc length: 4983 seconds
#
# Revision: 0
# Processed by: cddbd v1.5.2PL0 Copyright (c) Steve Scherf et al.
# Submitted via: CDex 1.51
#
DISCID=07137513
DTITLE=Erroll Garner - The Classic Album Collection, disc 1
DYEAR=1900
DGENRE=Jazz
TTITLE0=I'll Never Smile Again
TTITLE1=Then You've Never Been Blue
TTITLE2=Talk Of The Town
TTITLE3=Solitaire
TTITLE4=Cottage For Sage
TTITLE5=That Old Feeling
TTITLE6=Over The Rainbow
TTITLE7=The Way You Look Tonight
TTITLE8=Turquoise
TTITLE9=Pavanne
TTITLE10=Impressions
TTITLE11=Confession'
TTITLE12=I May Be Wrong
TTITLE13=Skylark
TTITLE14=Summertime
TTITLE15=Flamingo
TTITLE16=Reverie
TTITLE17=Blue and Sentimental
TTITLE18=I Can't Give You Anything But Love
EXTD=
EXTT0=
EXTT1=
EXTT2=
EXTT3=
EXTT4=
EXTT5=
EXTT6=
EXTT7=
EXTT8=
EXTT9=
EXTT10=
EXTT11=
EXTT12=
EXTT13=
EXTT14=
EXTT15=
EXTT16=
EXTT17=
EXTT18=
PLAYORDER=
